<svg width="24" height="24" viewBox="0 0 24 24" fill="none" xmlns="http://www.w3.org/2000/svg">
    <path d="M11.9719 0C9.52476 0 7.24993 0.728759 5.34779 1.97956H18.596C16.6938 0.728759 14.419 0 11.9719 0Z" fill="white"/>
    <path d="M21.5916 4.78248H2.34867C1.97597 5.27299 1.64196 5.79153 1.35013 6.3381H22.5901C22.2983 5.79153 21.9643 5.27299 21.5916 4.78248Z" fill="white"/>
    <path d="M11.9719 24C14.2889 24 16.4512 23.3483 18.2866 22.2166H5.65368C7.48901 23.3448 9.65133 24 11.9684 24H11.9719Z" fill="white"/>
    <path d="M1.46264 17.8581C1.76853 18.4047 2.12013 18.9232 2.50689 19.4137H19.7105L20.6212 20.3212C21.1626 19.7781 22.2842 18.3136 22.4811 17.8581H1.46264Z" fill="white"/>
    <path d="M12.116 11.8493H23.9965C23.993 11.4604 23.789 9.64905 23.6625 9.14102H0.274246C0.151187 9.64905 0.0562555 10.1676 0 10.6966H10.9628L12.1195 11.8493H12.116Z" fill="white"/>
    <path d="M0.0246118 13.4996C0.0914152 14.0286 0.189862 14.5507 0.323469 15.0552H15.3367L16.4934 16.2079H23.237C23.4374 15.6053 23.884 13.9936 23.9191 13.4996H0.0246118Z" fill="white"/>
</svg>
